<?xml version="1.0" encoding="UTF-8" standalone="no"?>
<!DOCTYPE svg PUBLIC "-//W3C//DTD SVG 1.1//EN"
 "http://www.w3.org/Graphics/SVG/1.1/DTD/svg11.dtd">
<!-- Generated by graphviz version 2.38.0 (20140413.2041)
 -->
<!-- Title: %3 Pages: 1 -->
<svg width="839pt" height="195pt"
 viewBox="0.00 0.00 839.00 194.50" xmlns="http://www.w3.org/2000/svg" xmlns:xlink="http://www.w3.org/1999/xlink">
<g id="graph0" class="graph" transform="scale(1 1) rotate(0) translate(4 190.5)">
<title>%3</title>
<polygon fill="white" stroke="none" points="-4,4 -4,-190.5 835,-190.5 835,4 -4,4"/>
<!-- Project -->
<g id="node1" class="node"><title>Project</title>
<polygon fill="white" stroke="none" points="297,-56.5 297,-182.5 489,-182.5 489,-56.5 297,-56.5"/>
<polygon fill="#1a1a1a" stroke="none" points="297,-161.5 297,-182.5 489,-182.5 489,-161.5 297,-161.5"/>
<polygon fill="none" stroke="black" points="297,-161.5 297,-182.5 489,-182.5 489,-161.5 297,-161.5"/>
<text text-anchor="start" x="373.5" y="-168.3" font-family="Times,serif" font-size="14.00" fill="white">Project</text>
<polygon fill="none" stroke="black" points="297,-140.5 297,-161.5 489,-161.5 489,-140.5 297,-140.5"/>
<text text-anchor="start" x="300" y="-147.3" font-family="Times,serif" font-size="14.00">+ projectName : ProjectName</text>
<polygon fill="none" stroke="black" points="297,-119.5 297,-140.5 489,-140.5 489,-119.5 297,-119.5"/>
<text text-anchor="start" x="300" y="-126.3" font-family="Times,serif" font-size="14.00">o projectStatus : ProjectStatus</text>
<polygon fill="none" stroke="black" points="297,-98.5 297,-119.5 489,-119.5 489,-98.5 297,-98.5"/>
<text text-anchor="start" x="300" y="-105.3" font-family="Times,serif" font-size="14.00">o projectDescription : Description</text>
<polygon fill="none" stroke="black" points="297,-77.5 297,-98.5 489,-98.5 489,-77.5 297,-77.5"/>
<text text-anchor="start" x="300" y="-84.3" font-family="Times,serif" font-size="14.00">o projectStartDate : Date</text>
<polygon fill="none" stroke="black" points="297,-56.5 297,-77.5 489,-77.5 489,-56.5 297,-56.5"/>
<text text-anchor="start" x="300" y="-63.3" font-family="Times,serif" font-size="14.00">o projectStarted : Bool</text>
</g>
<!-- Person -->
<g id="node2" class="node"><title>Person</title>
<polygon fill="white" stroke="none" points="656,-39.5 656,-123.5 823,-123.5 823,-39.5 656,-39.5"/>
<polygon fill="#1a1a1a" stroke="none" points="656.5,-102.5 656.5,-123.5 823.5,-123.5 823.5,-102.5 656.5,-102.5"/>
<polygon fill="none" stroke="black" points="656.5,-102.5 656.5,-123.5 823.5,-123.5 823.5,-102.5 656.5,-102.5"/>
<text text-anchor="start" x="721.5" y="-109.3" font-family="Times,serif" font-size="14.00" fill="white">Person</text>
<polygon fill="none" stroke="black" points="656.5,-81.5 656.5,-102.5 823.5,-102.5 823.5,-81.5 656.5,-81.5"/>
<text text-anchor="start" x="659.5" y="-88.3" font-family="Times,serif" font-size="14.00">o personName : PersonName</text>
<polygon fill="none" stroke="black" points="656.5,-60.5 656.5,-81.5 823.5,-81.5 823.5,-60.5 656.5,-60.5"/>
<text text-anchor="start" x="659.5" y="-67.3" font-family="Times,serif" font-size="14.00">o personStatus : PersonStatus</text>
<polygon fill="none" stroke="black" points="656.5,-39.5 656.5,-60.5 823.5,-60.5 823.5,-39.5 656.5,-39.5"/>
<text text-anchor="start" x="659.5" y="-46.3" font-family="Times,serif" font-size="14.00">+ personEmail : Email</text>
</g>
<!-- Project&#45;&gt;Person -->
<g id="edge1" class="edge"><title>Project:pl&#45;&gt;Person</title>
<path fill="none" stroke="black" d="M497.216,-119.5C509.611,-119.5 522.09,-119.5 534,-119.5 534,-119.5 534,-119.5 611,-119.5 621.421,-119.5 632.129,-118.32 642.699,-116.375"/>
<polyline fill="none" stroke="black" points="647.875,-115.361 642.969,-116.322 "/>
<text text-anchor="middle" x="572.5" y="-122.7" font-family="Times,serif" font-size="11.00">pl</text>
<text text-anchor="middle" x="644.875" y="-106.561" font-family="Times,serif" font-size="11.00">*</text>
<text text-anchor="middle" x="500.216" y="-110.7" font-family="Times,serif" font-size="11.00">*</text>
</g>
<!-- Project&#45;&gt;Person -->
<g id="edge2" class="edge"><title>Project:member&#45;&gt;Person</title>
<path fill="none" stroke="black" d="M497.139,-85.0068C509.434,-82.8359 521.911,-81.5 534,-81.5 534,-81.5 534,-81.5 611,-81.5 621.272,-81.5 632.01,-81.5 642.707,-81.5"/>
<polyline fill="none" stroke="black" points="647.953,-81.5 642.953,-81.5001 "/>
<text text-anchor="middle" x="572.5" y="-84.7" font-family="Times,serif" font-size="11.00">member</text>
<text text-anchor="middle" x="644.953" y="-72.7" font-family="Times,serif" font-size="11.00">*</text>
<text text-anchor="middle" x="500.139" y="-76.2068" font-family="Times,serif" font-size="11.00">*</text>
</g>
<!-- Person&#45;&gt;Person -->
<g id="edge3" class="edge"><title>Person:workswith&#45;&gt;Person</title>
<path fill="none" stroke="black" d="M719.379,-127.524C721.191,-137.906 727.898,-145.5 739.5,-145.5 749.108,-145.5 755.359,-140.292 758.253,-132.606"/>
<polyline fill="none" stroke="black" points="759.621,-127.524 758.321,-132.352 "/>
<text text-anchor="middle" x="739.5" y="-148.7" font-family="Times,serif" font-size="11.00">workswith</text>
<text text-anchor="middle" x="756.621" y="-130.724" font-family="Times,serif" font-size="11.00">*</text>
<text text-anchor="middle" x="716.379" y="-130.724" font-family="Times,serif" font-size="11.00">*</text>
</g>
<!-- Assignment -->
<g id="node3" class="node"><title>Assignment</title>
<polygon fill="white" stroke="none" points="8,-4 8,-109 130,-109 130,-4 8,-4"/>
<polygon fill="#1a1a1a" stroke="none" points="8,-87.5 8,-108.5 130,-108.5 130,-87.5 8,-87.5"/>
<polygon fill="none" stroke="black" points="8,-87.5 8,-108.5 130,-108.5 130,-87.5 8,-87.5"/>
<text text-anchor="start" x="36" y="-94.3" font-family="Times,serif" font-size="14.00" fill="white">Assignment</text>
<polygon fill="none" stroke="black" points="8,-66.5 8,-87.5 130,-87.5 130,-66.5 8,-66.5"/>
<text text-anchor="start" x="11" y="-73.3" font-family="Times,serif" font-size="14.00">+ project : Project</text>
<polygon fill="none" stroke="black" points="8,-45.5 8,-66.5 130,-66.5 130,-45.5 8,-45.5"/>
<text text-anchor="start" x="11" y="-52.3" font-family="Times,serif" font-size="14.00">+ assignee : Person</text>
<polygon fill="none" stroke="black" points="8,-24.5 8,-45.5 130,-45.5 130,-24.5 8,-24.5"/>
<text text-anchor="start" x="11" y="-31.3" font-family="Times,serif" font-size="14.00">o pplStartDate : Date</text>
<polygon fill="none" stroke="black" points="8,-3.5 8,-24.5 130,-24.5 130,-3.5 8,-3.5"/>
<text text-anchor="start" x="11" y="-10.3" font-family="Times,serif" font-size="14.00">o pplStarted : Bool</text>
</g>
<!-- Assignment&#45;&gt;Project -->
<g id="edge4" class="edge"><title>Assignment:project&#45;&gt;Project</title>
<path fill="none" stroke="black" d="M131,-77.5C152.864,-77.5 153.136,-99.5 175,-99.5 175,-99.5 175,-99.5 252,-99.5 262.233,-99.5 272.846,-100.03 283.442,-100.918"/>
<polyline fill="none" stroke="black" points="288.641,-101.382 283.661,-100.937 "/>
<text text-anchor="middle" x="213.5" y="-102.7" font-family="Times,serif" font-size="11.00">project</text>
<text text-anchor="middle" x="285.641" y="-92.5816" font-family="Times,serif" font-size="11.00">1</text>
<text text-anchor="middle" x="128" y="-68.7" font-family="Times,serif" font-size="11.00">*</text>
</g>
<!-- Assignment&#45;&gt;Person -->
<g id="edge5" class="edge"><title>Assignment:assignee&#45;&gt;Person</title>
<path fill="none" stroke="black" d="M131,-55.5C152.864,-55.5 153.136,-33.5 175,-33.5 175,-33.5 175,-33.5 611,-33.5 621.468,-33.5 632.127,-34.9346 642.599,-37.3079"/>
<polyline fill="none" stroke="black" points="647.722,-38.5461 642.862,-37.3715 "/>
<text text-anchor="middle" x="393" y="-36.7" font-family="Times,serif" font-size="11.00">assignee</text>
<text text-anchor="middle" x="644.722" y="-29.7461" font-family="Times,serif" font-size="11.00">1</text>
<text text-anchor="middle" x="128" y="-46.7" font-family="Times,serif" font-size="11.00">*</text>
</g>
</g>
</svg>
