<?xml version="1.0" encoding="UTF-8" standalone="no"?>
<!DOCTYPE svg PUBLIC "-//W3C//DTD SVG 1.1//EN"
 "http://www.w3.org/Graphics/SVG/1.1/DTD/svg11.dtd">
<!-- Generated by graphviz version 2.38.0 (20140413.2041)
 -->
<!-- Title: %3 Pages: 1 -->
<svg width="1068pt" height="667pt"
 viewBox="0.00 0.00 1067.78 667.33" xmlns="http://www.w3.org/2000/svg" xmlns:xlink="http://www.w3.org/1999/xlink">
<g id="graph0" class="graph" transform="scale(1 1) rotate(0) translate(4 663.33)">
<title>%3</title>
<polygon fill="white" stroke="none" points="-4,4 -4,-663.33 1063.78,-663.33 1063.78,4 -4,4"/>
<!-- cpt_1&#45;&gt;relName_1 -->
<g id="edge1" class="edge"><title>cpt_1&#45;&gt;relName_1</title>
<path fill="none" stroke="#595959" d="M713.97,-379.796C714.031,-422.163 714.176,-523.526 714.176,-523.526"/>
</g>
<!-- cpt_1&#45;&gt;relName_2 -->
<g id="edge3" class="edge"><title>cpt_1&#45;&gt;relName_2</title>
<path fill="none" stroke="#595959" d="M741.113,-362.641C782.05,-364.319 857.677,-367.418 885.128,-368.544"/>
<polygon fill="#595959" stroke="#595959" points="895.424,-368.966 885.248,-373.052 890.428,-368.761 885.433,-368.556 885.433,-368.556 885.433,-368.556 890.428,-368.761 885.617,-364.06 895.424,-368.966 895.424,-368.966"/>
</g>
<!-- cpt_1&#45;&gt;relName_3 -->
<g id="edge5" class="edge"><title>cpt_1&#45;&gt;relName_3</title>
<path fill="none" stroke="#595959" d="M730.382,-379.685C757.413,-409.545 810.13,-467.777 828.948,-488.564"/>
<polygon fill="#595959" stroke="#595959" points="835.828,-496.165 825.781,-491.771 832.473,-492.458 829.117,-488.751 829.117,-488.751 829.117,-488.751 832.473,-492.458 832.453,-485.731 835.828,-496.165 835.828,-496.165"/>
</g>
<!-- cpt_1&#45;&gt;relName_4 -->
<g id="edge7" class="edge"><title>cpt_1&#45;&gt;relName_4</title>
<path fill="none" stroke="#595959" d="M724.965,-343.466C745.667,-309.539 789.639,-237.474 804.774,-212.671"/>
<polygon fill="#595959" stroke="#595959" points="810.02,-204.072 808.653,-214.953 807.416,-208.34 804.812,-212.609 804.812,-212.609 804.812,-212.609 807.416,-208.34 800.97,-210.265 810.02,-204.072 810.02,-204.072"/>
</g>
<!-- cpt_1&#45;&gt;relName_5 -->
<g id="edge9" class="edge"><title>cpt_1&#45;&gt;relName_5</title>
<path fill="none" stroke="#595959" d="M686.872,-364.657C643.711,-369.646 561.237,-379.179 532.408,-382.512"/>
<polygon fill="#595959" stroke="#595959" points="522.155,-383.697 531.572,-378.078 527.122,-383.123 532.089,-382.549 532.089,-382.549 532.089,-382.549 527.122,-383.123 532.605,-387.019 522.155,-383.697 522.155,-383.697"/>
</g>
<!-- cpt_1&#45;&gt;relName_6 -->
<g id="edge11" class="edge"><title>cpt_1&#45;&gt;relName_6</title>
<path fill="none" stroke="#595959" d="M686.656,-356.899C644.164,-349.692 564.16,-336.122 536.216,-331.382"/>
<polygon fill="#595959" stroke="#595959" points="526.281,-329.697 536.892,-326.933 531.21,-330.533 536.14,-331.369 536.14,-331.369 536.14,-331.369 531.21,-330.533 535.387,-335.806 526.281,-329.697 526.281,-329.697"/>
</g>
<!-- cpt_6&#45;&gt;relName_7 -->
<g id="edge13" class="edge"><title>cpt_6&#45;&gt;relName_7</title>
<path fill="none" stroke="#595959" d="M319.085,-312.11C300.39,-296.225 276.218,-275.687 276.218,-275.687 276.218,-275.687 221.752,-243.798 200.051,-231.092"/>
<polygon fill="#595959" stroke="#595959" points="191.281,-225.957 202.185,-227.126 195.596,-228.483 199.911,-231.01 199.911,-231.01 199.911,-231.01 195.596,-228.483 197.637,-234.893 191.281,-225.957 191.281,-225.957"/>
</g>
<!-- cpt_6&#45;&gt;relName_8 -->
<g id="edge15" class="edge"><title>cpt_6&#45;&gt;relName_8</title>
<path fill="none" stroke="#595959" d="M313.265,-340.461C272.528,-355.677 197.641,-383.649 170.99,-393.604"/>
<polygon fill="#595959" stroke="#595959" points="161.259,-397.239 169.052,-389.524 165.943,-395.489 170.627,-393.74 170.627,-393.74 170.627,-393.74 165.943,-395.489 172.201,-397.955 161.259,-397.239 161.259,-397.239"/>
</g>
<!-- cpt_6&#45;&gt;relName_9 -->
<g id="edge17" class="edge"><title>cpt_6&#45;&gt;relName_9</title>
<path fill="none" stroke="#595959" d="M333.009,-348.437C315.89,-389.982 275.312,-488.46 275.312,-488.46"/>
</g>
<!-- cpt_6&#45;&gt;relName_10 -->
<g id="edge19" class="edge"><title>cpt_6&#45;&gt;relName_10</title>
<path fill="none" stroke="#595959" d="M313.455,-313.14C291.553,-306.83 263.181,-298.655 248.347,-297.974"/>
<polygon fill="#595959" stroke="#595959" points="238.418,-300.887 246.747,-293.754 243.216,-299.479 248.013,-298.072 248.013,-298.072 248.013,-298.072 243.216,-299.479 249.28,-302.39 238.418,-300.887 238.418,-300.887"/>
</g>
<!-- cpt_10&#45;&gt;relName_11 -->
<g id="edge21" class="edge"><title>cpt_10&#45;&gt;relName_11</title>
<path fill="none" stroke="#595959" d="M607.122,-116.481C629.08,-148.423 672.322,-211.322 672.322,-211.322"/>
</g>
<!-- cpt_10&#45;&gt;relName_12 -->
<g id="edge23" class="edge"><title>cpt_10&#45;&gt;relName_12</title>
<path fill="none" stroke="#595959" d="M561.61,-115.952C517.304,-139.593 444.127,-178.639 444.127,-178.639"/>
</g>
<!-- cpt_10&#45;&gt;relName_13 -->
<g id="edge25" class="edge"><title>cpt_10&#45;&gt;relName_13</title>
<path fill="none" stroke="#595959" d="M621.753,-80.2998C649.024,-62.1675 689.46,-35.2813 706.917,-23.6744"/>
<polygon fill="#595959" stroke="#595959" points="715.451,-18 709.616,-27.2841 711.288,-20.7684 707.124,-23.5369 707.124,-23.5369 707.124,-23.5369 711.288,-20.7684 704.632,-19.7896 715.451,-18 715.451,-18"/>
</g>
<!-- relName_1&#45;&gt;cpt_2 -->
<g id="edge2" class="edge"><title>relName_1&#45;&gt;cpt_2</title>
<path fill="none" stroke="#595959" d="M714.176,-523.526C714.176,-523.526 706.204,-578.232 701.124,-613.085"/>
<polygon fill="#595959" stroke="#595959" points="697.632,-612.781 699.653,-623.181 704.559,-613.79 697.632,-612.781"/>
<text text-anchor="middle" x="673.65" y="-571.706" font-family="sans" font-size="12.00">projectName</text>
</g>
<!-- relName_2&#45;&gt;cpt_3 -->
<g id="edge4" class="edge"><title>relName_2&#45;&gt;cpt_3</title>
<path fill="none" stroke="#595959" d="M895.424,-368.966C895.424,-368.966 948.008,-376.215 985.598,-381.397"/>
<text text-anchor="middle" x="958.011" y="-365.581" font-family="sans" font-size="12.00">projectStatus</text>
</g>
<!-- relName_3&#45;&gt;cpt_4 -->
<g id="edge6" class="edge"><title>relName_3&#45;&gt;cpt_4</title>
<path fill="none" stroke="#595959" d="M835.828,-496.165C835.828,-496.165 873.82,-559.316 893.112,-591.386"/>
<text text-anchor="middle" x="815.97" y="-547.175" font-family="sans" font-size="12.00">projectDescription</text>
</g>
<!-- relName_4&#45;&gt;cpt_5 -->
<g id="edge8" class="edge"><title>relName_4&#45;&gt;cpt_5</title>
<path fill="none" stroke="#595959" d="M810.02,-204.072C810.02,-204.072 820.296,-115.944 824.831,-77.0443"/>
<text text-anchor="middle" x="774.426" y="-143.958" font-family="sans" font-size="12.00">projectStartDate</text>
</g>
<!-- relName_5&#45;&gt;cpt_6 -->
<g id="edge10" class="edge"><title>relName_5&#45;&gt;cpt_6</title>
<path fill="none" stroke="#595959" d="M522.155,-383.697C522.155,-383.697 418.363,-353.186 367.683,-338.288"/>
<text text-anchor="middle" x="439.919" y="-364.393" font-family="sans" font-size="12.00">pl</text>
</g>
<!-- relName_6&#45;&gt;cpt_6 -->
<g id="edge12" class="edge"><title>relName_6&#45;&gt;cpt_6</title>
<path fill="none" stroke="#595959" d="M526.281,-329.697C526.281,-329.697 419.031,-330.041 367.501,-330.207"/>
<text text-anchor="middle" x="424.391" y="-333.352" font-family="sans" font-size="12.00">member</text>
</g>
<!-- relName_7&#45;&gt;cpt_7 -->
<g id="edge14" class="edge"><title>relName_7&#45;&gt;cpt_7</title>
<path fill="none" stroke="#595959" d="M191.281,-225.957C191.281,-225.957 149.255,-208.989 117.242,-196.065"/>
<text text-anchor="middle" x="120.762" y="-214.411" font-family="sans" font-size="12.00">personName</text>
</g>
<!-- relName_8&#45;&gt;cpt_8 -->
<g id="edge16" class="edge"><title>relName_8&#45;&gt;cpt_8</title>
<path fill="none" stroke="#595959" d="M161.259,-397.239C161.259,-397.239 110.058,-419.342 73.257,-435.228"/>
<text text-anchor="middle" x="82.758" y="-419.634" font-family="sans" font-size="12.00">personStatus</text>
</g>
<!-- relName_9&#45;&gt;cpt_9 -->
<g id="edge18" class="edge"><title>relName_9&#45;&gt;cpt_9</title>
<path fill="none" stroke="#595959" d="M275.312,-488.46C275.312,-488.46 259.254,-544.597 249.176,-579.832"/>
<polygon fill="#595959" stroke="#595959" points="245.772,-579.004 246.387,-589.581 252.502,-580.929 245.772,-579.004"/>
<text text-anchor="middle" x="229.244" y="-537.546" font-family="sans" font-size="12.00">personEmail</text>
</g>
<!-- relName_10&#45;&gt;cpt_6 -->
<g id="edge20" class="edge"><title>relName_10&#45;&gt;cpt_6</title>
<path fill="none" stroke="#595959" d="M238.418,-300.887C238.418,-300.887 235.926,-309.535 235.926,-309.535 235.926,-309.535 283.079,-323.12 313.286,-331.823"/>
<text text-anchor="middle" x="242.782" y="-322.833" font-family="sans" font-size="12.00">workswith</text>
</g>
<!-- relName_11&#45;&gt;cpt_1 -->
<g id="edge22" class="edge"><title>relName_11&#45;&gt;cpt_1</title>
<path fill="none" stroke="#595959" d="M672.322,-211.322C672.322,-211.322 694.204,-290.29 706.236,-333.711"/>
<polygon fill="#595959" stroke="#595959" points="702.88,-334.707 708.923,-343.409 709.626,-332.838 702.88,-334.707"/>
<text text-anchor="middle" x="670.779" y="-275.917" font-family="sans" font-size="12.00">project</text>
</g>
<!-- relName_12&#45;&gt;cpt_6 -->
<g id="edge24" class="edge"><title>relName_12&#45;&gt;cpt_6</title>
<path fill="none" stroke="#595959" d="M444.127,-178.639C444.127,-178.639 388.483,-260.06 358.739,-303.583"/>
<polygon fill="#595959" stroke="#595959" points="355.739,-301.769 352.987,-312 361.519,-305.719 355.739,-301.769"/>
<text text-anchor="middle" x="378.433" y="-244.511" font-family="sans" font-size="12.00">assignee</text>
</g>
<!-- relName_13&#45;&gt;cpt_5 -->
<g id="edge26" class="edge"><title>relName_13&#45;&gt;cpt_5</title>
<path fill="none" stroke="#595959" d="M715.451,-18C715.451,-18 766.661,-36.8134 799.667,-48.9393"/>
<text text-anchor="middle" x="790.559" y="-23.8696" font-family="sans" font-size="12.00">pplStartDate</text>
</g>
<!-- cpt_1 -->
<g id="node1" class="node"><title>cpt_1</title>
<g id="a_node1"><a xlink:href="Atlas.php?content=Concept&User=&Script=ProjectAdministration.adl&Concept=(.ProjectAdministration.adl)Project" xlink:title="Project">
<polygon fill="lightgrey" stroke="black" points="740.944,-379.528 686.944,-379.528 686.944,-343.528 740.944,-343.528 740.944,-379.528"/>
<text text-anchor="middle" x="713.944" y="-359.028" font-family="sans" font-size="10.00">Project</text>
</a>
</g>
</g>
<!-- cpt_2 -->
<g id="node2" class="node"><title>cpt_2</title>
<g id="a_node2"><a xlink:href="Atlas.php?content=Concept&User=&Script=ProjectAdministration.adl&Concept=(.ProjectAdministration.adl)ProjectName" xlink:title="ProjectName">
<polygon fill="lightgrey" stroke="black" points="732.508,-659.33 661.508,-659.33 661.508,-623.33 732.508,-623.33 732.508,-659.33"/>
<text text-anchor="middle" x="697.008" y="-638.83" font-family="sans" font-size="10.00">ProjectName</text>
</a>
</g>
</g>
<!-- cpt_3 -->
<g id="node3" class="node"><title>cpt_3</title>
<g id="a_node3"><a xlink:href="Atlas.php?content=Concept&User=&Script=ProjectAdministration.adl&Concept=(.ProjectAdministration.adl)ProjectStatus" xlink:title="ProjectStatus">
<polygon fill="lightgrey" stroke="black" points="1059.78,-404.522 985.776,-404.522 985.776,-368.522 1059.78,-368.522 1059.78,-404.522"/>
<text text-anchor="middle" x="1022.78" y="-384.022" font-family="sans" font-size="10.00">ProjectStatus</text>
</a>
</g>
</g>
<!-- cpt_4 -->
<g id="node4" class="node"><title>cpt_4</title>
<g id="a_node4"><a xlink:href="Atlas.php?content=Concept&User=&Script=ProjectAdministration.adl&Concept=(.ProjectAdministration.adl)Description" xlink:title="Description">
<polygon fill="lightgrey" stroke="black" points="936.078,-627.613 872.078,-627.613 872.078,-591.613 936.078,-591.613 936.078,-627.613"/>
<text text-anchor="middle" x="904.078" y="-607.113" font-family="sans" font-size="10.00">Description</text>
</a>
</g>
</g>
<!-- cpt_5 -->
<g id="node5" class="node"><title>cpt_5</title>
<g id="a_node5"><a xlink:href="Atlas.php?content=Concept&User=&Script=ProjectAdministration.adl&Concept=(.ProjectAdministration.adl)Date" xlink:title="Date">
<polygon fill="lightgrey" stroke="black" points="853.94,-76.959 799.94,-76.959 799.94,-40.959 853.94,-40.959 853.94,-76.959"/>
<text text-anchor="middle" x="826.94" y="-56.459" font-family="sans" font-size="10.00">Date</text>
</a>
</g>
</g>
<!-- cpt_6 -->
<g id="node6" class="node"><title>cpt_6</title>
<g id="a_node6"><a xlink:href="Atlas.php?content=Concept&User=&Script=ProjectAdministration.adl&Concept=(.ProjectAdministration.adl)Person" xlink:title="Person">
<polygon fill="lightgrey" stroke="black" points="367.485,-348.293 313.485,-348.293 313.485,-312.293 367.485,-312.293 367.485,-348.293"/>
<text text-anchor="middle" x="340.485" y="-327.793" font-family="sans" font-size="10.00">Person</text>
</a>
</g>
</g>
<!-- cpt_7 -->
<g id="node7" class="node"><title>cpt_7</title>
<g id="a_node7"><a xlink:href="Atlas.php?content=Concept&User=&Script=ProjectAdministration.adl&Concept=(.ProjectAdministration.adl)PersonName" xlink:title="PersonName">
<polygon fill="lightgrey" stroke="black" points="117.147,-199.694 46.1472,-199.694 46.1472,-163.694 117.147,-163.694 117.147,-199.694"/>
<text text-anchor="middle" x="81.6472" y="-179.194" font-family="sans" font-size="10.00">PersonName</text>
</a>
</g>
</g>
<!-- cpt_8 -->
<g id="node8" class="node"><title>cpt_8</title>
<g id="a_node8"><a xlink:href="Atlas.php?content=Concept&User=&Script=ProjectAdministration.adl&Concept=(.ProjectAdministration.adl)PersonStatus" xlink:title="PersonStatus">
<polygon fill="lightgrey" stroke="black" points="73,-469.096 7.81597e-014,-469.096 7.81597e-014,-433.096 73,-433.096 73,-469.096"/>
<text text-anchor="middle" x="36.5" y="-448.596" font-family="sans" font-size="10.00">PersonStatus</text>
</a>
</g>
</g>
<!-- cpt_9 -->
<g id="node9" class="node"><title>cpt_9</title>
<g id="a_node9"><a xlink:href="Atlas.php?content=Concept&User=&Script=ProjectAdministration.adl&Concept=(.ProjectAdministration.adl)Email" xlink:title="Email">
<polygon fill="lightgrey" stroke="black" points="268.207,-625.689 214.207,-625.689 214.207,-589.689 268.207,-589.689 268.207,-625.689"/>
<text text-anchor="middle" x="241.207" y="-605.189" font-family="sans" font-size="10.00">Email</text>
</a>
</g>
</g>
<!-- cpt_10 -->
<g id="node10" class="node"><title>cpt_10</title>
<g id="a_node10"><a xlink:href="Atlas.php?content=Concept&User=&Script=ProjectAdministration.adl&Concept=(.ProjectAdministration.adl)Assignment" xlink:title="Assignment">
<polygon fill="lightgrey" stroke="black" points="627.641,-116.327 561.641,-116.327 561.641,-80.3267 627.641,-80.3267 627.641,-116.327"/>
<text text-anchor="middle" x="594.641" y="-95.8267" font-family="sans" font-size="10.00">Assignment</text>
</a>
</g>
</g>
<!-- relName_1 -->
<g id="node11" class="node"><title>relName_1</title>
<g id="a_node11"><a xlink:href="Atlas.php?content=Relatiedetails&User=&Script=ProjectAdministration.adl&Relatiedetails=(.ProjectAdministration.adl)projectName[Project*ProjectName]">
</a>
</g>
</g>
<!-- relName_2 -->
<g id="node12" class="node"><title>relName_2</title>
<g id="a_node12"><a xlink:href="Atlas.php?content=Relatiedetails&User=&Script=ProjectAdministration.adl&Relatiedetails=(.ProjectAdministration.adl)projectStatus[Project*ProjectStatus]">
</a>
</g>
</g>
<!-- relName_3 -->
<g id="node13" class="node"><title>relName_3</title>
<g id="a_node13"><a xlink:href="Atlas.php?content=Relatiedetails&User=&Script=ProjectAdministration.adl&Relatiedetails=(.ProjectAdministration.adl)projectDescription[Project*Description]">
</a>
</g>
</g>
<!-- relName_4 -->
<g id="node14" class="node"><title>relName_4</title>
<g id="a_node14"><a xlink:href="Atlas.php?content=Relatiedetails&User=&Script=ProjectAdministration.adl&Relatiedetails=(.ProjectAdministration.adl)projectStartDate[Project*Date]">
</a>
</g>
</g>
<!-- relName_5 -->
<g id="node15" class="node"><title>relName_5</title>
<g id="a_node15"><a xlink:href="Atlas.php?content=Relatiedetails&User=&Script=ProjectAdministration.adl&Relatiedetails=(.ProjectAdministration.adl)pl[Project*Person]">
</a>
</g>
</g>
<!-- relName_6 -->
<g id="node16" class="node"><title>relName_6</title>
<g id="a_node16"><a xlink:href="Atlas.php?content=Relatiedetails&User=&Script=ProjectAdministration.adl&Relatiedetails=(.ProjectAdministration.adl)member[Project*Person]">
</a>
</g>
</g>
<!-- relName_7 -->
<g id="node17" class="node"><title>relName_7</title>
<g id="a_node17"><a xlink:href="Atlas.php?content=Relatiedetails&User=&Script=ProjectAdministration.adl&Relatiedetails=(.ProjectAdministration.adl)personName[Person*PersonName]">
</a>
</g>
</g>
<!-- relName_8 -->
<g id="node18" class="node"><title>relName_8</title>
<g id="a_node18"><a xlink:href="Atlas.php?content=Relatiedetails&User=&Script=ProjectAdministration.adl&Relatiedetails=(.ProjectAdministration.adl)personStatus[Person*PersonStatus]">
</a>
</g>
</g>
<!-- relName_9 -->
<g id="node19" class="node"><title>relName_9</title>
<g id="a_node19"><a xlink:href="Atlas.php?content=Relatiedetails&User=&Script=ProjectAdministration.adl&Relatiedetails=(.ProjectAdministration.adl)personEmail[Person*Email]">
</a>
</g>
</g>
<!-- relName_10 -->
<g id="node20" class="node"><title>relName_10</title>
<g id="a_node20"><a xlink:href="Atlas.php?content=Relatiedetails&User=&Script=ProjectAdministration.adl&Relatiedetails=(.ProjectAdministration.adl)workswith[Person]">
</a>
</g>
</g>
<!-- relName_11 -->
<g id="node21" class="node"><title>relName_11</title>
<g id="a_node21"><a xlink:href="Atlas.php?content=Relatiedetails&User=&Script=ProjectAdministration.adl&Relatiedetails=(.ProjectAdministration.adl)project[Assignment*Project]">
</a>
</g>
</g>
<!-- relName_12 -->
<g id="node22" class="node"><title>relName_12</title>
<g id="a_node22"><a xlink:href="Atlas.php?content=Relatiedetails&User=&Script=ProjectAdministration.adl&Relatiedetails=(.ProjectAdministration.adl)assignee[Assignment*Person]">
</a>
</g>
</g>
<!-- relName_13 -->
<g id="node23" class="node"><title>relName_13</title>
<g id="a_node23"><a xlink:href="Atlas.php?content=Relatiedetails&User=&Script=ProjectAdministration.adl&Relatiedetails=(.ProjectAdministration.adl)pplStartDate[Assignment*Date]">
</a>
</g>
</g>
</g>
</svg>
