<?xml version="1.0" encoding="UTF-8" standalone="no"?>
<!DOCTYPE svg PUBLIC "-//W3C//DTD SVG 1.1//EN"
 "http://www.w3.org/Graphics/SVG/1.1/DTD/svg11.dtd">
<!-- Generated by graphviz version 2.38.0 (20140413.2041)
 -->
<!-- Title: %3 Pages: 1 -->
<svg width="951pt" height="697pt"
 viewBox="0.00 0.00 951.38 697.34" xmlns="http://www.w3.org/2000/svg" xmlns:xlink="http://www.w3.org/1999/xlink">
<g id="graph0" class="graph" transform="scale(1 1) rotate(0) translate(4 693.336)">
<title>%3</title>
<polygon fill="white" stroke="none" points="-4,4 -4,-693.336 947.385,-693.336 947.385,4 -4,4"/>
<!-- cpt_1&#45;&gt;relName_1 -->
<g id="edge1" class="edge"><title>cpt_1&#45;&gt;relName_1</title>
<path fill="none" stroke="#595959" d="M680.649,-319.902C726.513,-324.69 814.135,-333.838 814.135,-333.838"/>
</g>
<!-- cpt_1&#45;&gt;relName_3 -->
<g id="edge5" class="edge"><title>cpt_1&#45;&gt;relName_3</title>
<path fill="none" stroke="#595959" d="M625.988,-312.508C582.109,-305.225 498.072,-291.277 469.288,-286.499"/>
<polygon fill="#595959" stroke="#595959" points="459.329,-284.846 469.931,-282.044 464.261,-285.665 469.194,-286.483 469.194,-286.483 469.194,-286.483 464.261,-285.665 468.457,-290.923 459.329,-284.846 459.329,-284.846"/>
</g>
<!-- cpt_1&#45;&gt;relName_4 -->
<g id="edge7" class="edge"><title>cpt_1&#45;&gt;relName_4</title>
<path fill="none" stroke="#595959" d="M626.097,-321.33C583.112,-328.066 501.583,-340.843 473.095,-345.307"/>
<polygon fill="#595959" stroke="#595959" points="462.965,-346.895 472.148,-340.901 467.905,-346.121 472.845,-345.346 472.845,-345.346 472.845,-345.346 467.905,-346.121 473.541,-349.792 462.965,-346.895 462.965,-346.895"/>
</g>
<!-- cpt_1&#45;&gt;relName_8 -->
<g id="edge15" class="edge"><title>cpt_1&#45;&gt;relName_8</title>
<path fill="none" stroke="#595959" d="M656.834,-298.886C663.941,-261.514 679.994,-177.094 685.534,-147.962"/>
<polygon fill="#595959" stroke="#595959" points="687.457,-137.852 690.009,-148.517 686.522,-142.764 685.588,-147.676 685.588,-147.676 685.588,-147.676 686.522,-142.764 681.168,-146.836 687.457,-137.852 687.457,-137.852"/>
</g>
<!-- cpt_1&#45;&gt;relName_9 -->
<g id="edge17" class="edge"><title>cpt_1&#45;&gt;relName_9</title>
<path fill="none" stroke="#595959" d="M679.055,-298.874C714.366,-273.872 776.084,-230.172 798.416,-214.359"/>
<polygon fill="#595959" stroke="#595959" points="806.782,-208.436 801.221,-217.887 802.701,-211.325 798.621,-214.214 798.621,-214.214 798.621,-214.214 802.701,-211.325 796.02,-210.542 806.782,-208.436 806.782,-208.436"/>
</g>
<!-- cpt_1&#45;&gt;relName_10 -->
<g id="edge19" class="edge"><title>cpt_1&#45;&gt;relName_10</title>
<path fill="none" stroke="#595959" d="M664.674,-335.347C685.263,-368.69 728.162,-438.164 743.221,-462.55"/>
<polygon fill="#595959" stroke="#595959" points="748.585,-471.237 739.502,-465.093 745.958,-466.983 743.331,-462.729 743.331,-462.729 743.331,-462.729 745.958,-466.983 747.16,-460.365 748.585,-471.237 748.585,-471.237"/>
</g>
<!-- cpt_3&#45;&gt;relName_2 -->
<g id="edge3" class="edge"><title>cpt_3&#45;&gt;relName_2</title>
<path fill="none" stroke="#595959" d="M257.954,-366.783C228.444,-397.385 172.066,-455.848 172.066,-455.848"/>
</g>
<!-- cpt_3&#45;&gt;relName_5 -->
<g id="edge9" class="edge"><title>cpt_3&#45;&gt;relName_5</title>
<path fill="none" stroke="#595959" d="M248.416,-343.73C210.411,-349.697 141.042,-360.588 117.114,-369.231"/>
<polygon fill="#595959" stroke="#595959" points="108.752,-374.767 114.605,-365.495 112.921,-372.007 117.09,-369.247 117.09,-369.247 117.09,-369.247 112.921,-372.007 119.574,-372.999 108.752,-374.767 108.752,-374.767"/>
</g>
<!-- cpt_3&#45;&gt;relName_12 -->
<g id="edge23" class="edge"><title>cpt_3&#45;&gt;relName_12</title>
<path fill="none" stroke="#595959" d="M248.327,-334.704C211.136,-315.703 146.269,-282.561 122.349,-270.339"/>
<polygon fill="#595959" stroke="#595959" points="113.149,-265.639 124.102,-266.182 117.602,-267.914 122.054,-270.189 122.054,-270.189 122.054,-270.189 117.602,-267.914 120.007,-274.196 113.149,-265.639 113.149,-265.639"/>
</g>
<!-- cpt_3&#45;&gt;relName_13 -->
<g id="edge25" class="edge"><title>cpt_3&#45;&gt;relName_13</title>
<path fill="none" stroke="#595959" d="M269.387,-330.481C258.402,-297.949 235.685,-230.672 227.231,-205.632"/>
<polygon fill="#595959" stroke="#595959" points="223.967,-195.966 231.429,-204.001 225.566,-200.703 227.166,-205.44 227.166,-205.44 227.166,-205.44 225.566,-200.703 222.902,-206.88 223.967,-195.966 223.967,-195.966"/>
</g>
<!-- cpt_5&#45;&gt;relName_6 -->
<g id="edge11" class="edge"><title>cpt_5&#45;&gt;relName_6</title>
<path fill="none" stroke="#595959" d="M529.797,-584.055C553.219,-550.165 601.187,-480.758 601.187,-480.758"/>
</g>
<!-- cpt_5&#45;&gt;relName_7 -->
<g id="edge13" class="edge"><title>cpt_5&#45;&gt;relName_7</title>
<path fill="none" stroke="#595959" d="M485.602,-584.185C441.829,-559.191 368.106,-517.096 368.106,-517.096"/>
</g>
<!-- cpt_5&#45;&gt;relName_11 -->
<g id="edge21" class="edge"><title>cpt_5&#45;&gt;relName_11</title>
<path fill="none" stroke="#595959" d="M549.494,-620.396C576.926,-635.829 614.457,-656.945 631.269,-666.403"/>
<polygon fill="#595959" stroke="#595959" points="640.036,-671.336 629.114,-670.355 635.678,-668.884 631.321,-666.433 631.321,-666.433 631.321,-666.433 635.678,-668.884 633.527,-662.511 640.036,-671.336 640.036,-671.336"/>
</g>
<!-- relName_1&#45;&gt;cpt_2 -->
<g id="edge2" class="edge"><title>relName_1&#45;&gt;cpt_2</title>
<path fill="none" stroke="#595959" d="M814.135,-333.838C814.135,-333.838 838.287,-337.904 862.074,-341.909"/>
<polygon fill="#595959" stroke="#595959" points="861.732,-345.401 872.175,-343.609 862.895,-338.498 861.732,-345.401"/>
<text text-anchor="middle" x="872.105" y="-328.273" font-family="sans" font-size="12.00">projectName</text>
</g>
<!-- relName_2&#45;&gt;cpt_4 -->
<g id="edge4" class="edge"><title>relName_2&#45;&gt;cpt_4</title>
<path fill="none" stroke="#595959" d="M172.066,-455.848C172.066,-455.848 160.551,-474.857 150.16,-492.008"/>
<polygon fill="#595959" stroke="#595959" points="147.084,-490.331 144.896,-500.698 153.071,-493.958 147.084,-490.331"/>
<text text-anchor="middle" x="128.113" y="-477.328" font-family="sans" font-size="12.00">personEmail</text>
</g>
<!-- relName_3&#45;&gt;cpt_3 -->
<g id="edge6" class="edge"><title>relName_3&#45;&gt;cpt_3</title>
<path fill="none" stroke="#595959" d="M459.329,-284.846C459.329,-284.846 353.76,-321.452 302.625,-339.183"/>
<text text-anchor="middle" x="375.977" y="-315.414" font-family="sans" font-size="12.00">pl</text>
</g>
<!-- relName_4&#45;&gt;cpt_3 -->
<g id="edge8" class="edge"><title>relName_4&#45;&gt;cpt_3</title>
<path fill="none" stroke="#595959" d="M462.965,-346.895C462.965,-346.895 354.752,-347.872 302.76,-348.342"/>
<text text-anchor="middle" x="360.362" y="-351.018" font-family="sans" font-size="12.00">member</text>
</g>
<!-- relName_5&#45;&gt;cpt_3 -->
<g id="edge10" class="edge"><title>relName_5&#45;&gt;cpt_3</title>
<path fill="none" stroke="#595959" d="M108.752,-374.767C108.752,-374.767 110.147,-383.658 110.147,-383.658 110.147,-383.658 200.555,-369.465 248.231,-361.979"/>
<text text-anchor="middle" x="202.244" y="-376.917" font-family="sans" font-size="12.00">workswith</text>
</g>
<!-- relName_6&#45;&gt;cpt_1 -->
<g id="edge12" class="edge"><title>relName_6&#45;&gt;cpt_1</title>
<path fill="none" stroke="#595959" d="M601.187,-480.758C601.187,-480.758 629.672,-391.414 644.554,-344.734"/>
<polygon fill="#595959" stroke="#595959" points="647.891,-345.79 647.594,-335.199 641.222,-343.664 647.891,-345.79"/>
<text text-anchor="middle" x="604.371" y="-416.146" font-family="sans" font-size="12.00">project</text>
</g>
<!-- relName_7&#45;&gt;cpt_3 -->
<g id="edge14" class="edge"><title>relName_7&#45;&gt;cpt_3</title>
<path fill="none" stroke="#595959" d="M368.106,-517.096C368.106,-517.096 316.421,-423.049 290.277,-375.475"/>
<polygon fill="#595959" stroke="#595959" points="293.295,-373.699 285.411,-366.621 287.16,-377.071 293.295,-373.699"/>
<text text-anchor="middle" x="306.191" y="-449.685" font-family="sans" font-size="12.00">assignee</text>
</g>
<!-- relName_8&#45;&gt;cpt_6 -->
<g id="edge16" class="edge"><title>relName_8&#45;&gt;cpt_6</title>
<path fill="none" stroke="#595959" d="M687.457,-137.852C687.457,-137.852 701.431,-69.7313 708.309,-36.203"/>
<text text-anchor="middle" x="662.883" y="-90.4276" font-family="sans" font-size="12.00">projectStatus</text>
</g>
<!-- relName_9&#45;&gt;cpt_7 -->
<g id="edge18" class="edge"><title>relName_9&#45;&gt;cpt_7</title>
<path fill="none" stroke="#595959" d="M806.782,-208.436C806.782,-208.436 850.321,-182.069 881.104,-163.426"/>
<text text-anchor="middle" x="795.443" y="-176.331" font-family="sans" font-size="12.00">projectDescription</text>
</g>
<!-- relName_10&#45;&gt;cpt_8 -->
<g id="edge20" class="edge"><title>relName_10&#45;&gt;cpt_8</title>
<path fill="none" stroke="#595959" d="M748.585,-471.237C748.585,-471.237 747.974,-548.039 747.688,-584.04"/>
<text text-anchor="middle" x="705.137" y="-531.039" font-family="sans" font-size="12.00">projectStartDate</text>
</g>
<!-- relName_11&#45;&gt;cpt_8 -->
<g id="edge22" class="edge"><title>relName_11&#45;&gt;cpt_8</title>
<path fill="none" stroke="#595959" d="M640.036,-671.336C640.036,-671.336 688.566,-640.153 720.414,-619.689"/>
<text text-anchor="middle" x="647.225" y="-635.913" font-family="sans" font-size="12.00">pplStartDate</text>
</g>
<!-- relName_12&#45;&gt;cpt_9 -->
<g id="edge24" class="edge"><title>relName_12&#45;&gt;cpt_9</title>
<path fill="none" stroke="#595959" d="M113.149,-265.639C113.149,-265.639 78.0972,-232.895 55.0942,-211.406"/>
<text text-anchor="middle" x="50.6218" y="-241.923" font-family="sans" font-size="12.00">personName</text>
</g>
<!-- relName_13&#45;&gt;cpt_10 -->
<g id="edge26" class="edge"><title>relName_13&#45;&gt;cpt_10</title>
<path fill="none" stroke="#595959" d="M223.967,-195.966C223.967,-195.966 222.817,-142.155 222.198,-113.147"/>
<text text-anchor="middle" x="188.582" y="-157.957" font-family="sans" font-size="12.00">personStatus</text>
</g>
<!-- cpt_1 -->
<g id="node1" class="node"><title>cpt_1</title>
<g id="a_node1"><a xlink:href="Atlas.php?content=Concept&User=&Script=ProjectAdministration.adl&Concept=(.ProjectAdministration.adl)Project" xlink:title="Project">
<polygon fill="lightgrey" stroke="black" points="680.379,-335.055 626.379,-335.055 626.379,-299.055 680.379,-299.055 680.379,-335.055"/>
<text text-anchor="middle" x="653.379" y="-314.555" font-family="sans" font-size="10.00">Project</text>
</a>
</g>
</g>
<!-- cpt_2 -->
<g id="node2" class="node"><title>cpt_2</title>
<g id="a_node2"><a xlink:href="Atlas.php?content=Concept&User=&Script=ProjectAdministration.adl&Concept=(.ProjectAdministration.adl)ProjectName" xlink:title="ProjectName">
<polygon fill="lightgrey" stroke="black" points="943.385,-367.622 872.385,-367.622 872.385,-331.622 943.385,-331.622 943.385,-367.622"/>
<text text-anchor="middle" x="907.885" y="-347.122" font-family="sans" font-size="10.00">ProjectName</text>
</a>
</g>
</g>
<!-- cpt_3 -->
<g id="node3" class="node"><title>cpt_3</title>
<g id="a_node3"><a xlink:href="Atlas.php?content=Concept&User=&Script=ProjectAdministration.adl&Concept=(.ProjectAdministration.adl)Person" xlink:title="Person">
<polygon fill="lightgrey" stroke="black" points="302.501,-366.588 248.501,-366.588 248.501,-330.588 302.501,-330.588 302.501,-366.588"/>
<text text-anchor="middle" x="275.501" y="-346.088" font-family="sans" font-size="10.00">Person</text>
</a>
</g>
</g>
<!-- cpt_4 -->
<g id="node4" class="node"><title>cpt_4</title>
<g id="a_node4"><a xlink:href="Atlas.php?content=Concept&User=&Script=ProjectAdministration.adl&Concept=(.ProjectAdministration.adl)Email" xlink:title="Email">
<polygon fill="lightgrey" stroke="black" points="160.839,-536.949 106.839,-536.949 106.839,-500.949 160.839,-500.949 160.839,-536.949"/>
<text text-anchor="middle" x="133.839" y="-516.449" font-family="sans" font-size="10.00">Email</text>
</a>
</g>
</g>
<!-- cpt_5 -->
<g id="node5" class="node"><title>cpt_5</title>
<g id="a_node5"><a xlink:href="Atlas.php?content=Concept&User=&Script=ProjectAdministration.adl&Concept=(.ProjectAdministration.adl)Assignment" xlink:title="Assignment">
<polygon fill="lightgrey" stroke="black" points="550.227,-620.242 484.227,-620.242 484.227,-584.242 550.227,-584.242 550.227,-620.242"/>
<text text-anchor="middle" x="517.227" y="-599.742" font-family="sans" font-size="10.00">Assignment</text>
</a>
</g>
</g>
<!-- cpt_6 -->
<g id="node6" class="node"><title>cpt_6</title>
<g id="a_node6"><a xlink:href="Atlas.php?content=Concept&User=&Script=ProjectAdministration.adl&Concept=(.ProjectAdministration.adl)ProjectStatus" xlink:title="ProjectStatus">
<polygon fill="lightgrey" stroke="black" points="749.044,-36 675.044,-36 675.044,-0 749.044,-0 749.044,-36"/>
<text text-anchor="middle" x="712.044" y="-15.5" font-family="sans" font-size="10.00">ProjectStatus</text>
</a>
</g>
</g>
<!-- cpt_7 -->
<g id="node7" class="node"><title>cpt_7</title>
<g id="a_node7"><a xlink:href="Atlas.php?content=Concept&User=&Script=ProjectAdministration.adl&Concept=(.ProjectAdministration.adl)Description" xlink:title="Description">
<polygon fill="lightgrey" stroke="black" points="942.956,-163.348 878.956,-163.348 878.956,-127.348 942.956,-127.348 942.956,-163.348"/>
<text text-anchor="middle" x="910.956" y="-142.848" font-family="sans" font-size="10.00">Description</text>
</a>
</g>
</g>
<!-- cpt_8 -->
<g id="node8" class="node"><title>cpt_8</title>
<g id="a_node8"><a xlink:href="Atlas.php?content=Concept&User=&Script=ProjectAdministration.adl&Concept=(.ProjectAdministration.adl)Date" xlink:title="Date">
<polygon fill="lightgrey" stroke="black" points="774.543,-620.258 720.543,-620.258 720.543,-584.258 774.543,-584.258 774.543,-620.258"/>
<text text-anchor="middle" x="747.543" y="-599.758" font-family="sans" font-size="10.00">Date</text>
</a>
</g>
</g>
<!-- cpt_9 -->
<g id="node9" class="node"><title>cpt_9</title>
<g id="a_node9"><a xlink:href="Atlas.php?content=Concept&User=&Script=ProjectAdministration.adl&Concept=(.ProjectAdministration.adl)PersonName" xlink:title="PersonName">
<polygon fill="lightgrey" stroke="black" points="71,-211.102 -1.42109e-014,-211.102 -1.42109e-014,-175.102 71,-175.102 71,-211.102"/>
<text text-anchor="middle" x="35.5" y="-190.602" font-family="sans" font-size="10.00">PersonName</text>
</a>
</g>
</g>
<!-- cpt_10 -->
<g id="node10" class="node"><title>cpt_10</title>
<g id="a_node10"><a xlink:href="Atlas.php?content=Concept&User=&Script=ProjectAdministration.adl&Concept=(.ProjectAdministration.adl)PersonStatus" xlink:title="PersonStatus">
<polygon fill="lightgrey" stroke="black" points="258.312,-113.118 185.312,-113.118 185.312,-77.1177 258.312,-77.1177 258.312,-113.118"/>
<text text-anchor="middle" x="221.812" y="-92.6177" font-family="sans" font-size="10.00">PersonStatus</text>
</a>
</g>
</g>
<!-- relName_1 -->
<g id="node11" class="node"><title>relName_1</title>
<g id="a_node11"><a xlink:href="Atlas.php?content=Relatiedetails&User=&Script=ProjectAdministration.adl&Relatiedetails=(.ProjectAdministration.adl)projectName[Project*ProjectName]">
</a>
</g>
</g>
<!-- relName_2 -->
<g id="node12" class="node"><title>relName_2</title>
<g id="a_node12"><a xlink:href="Atlas.php?content=Relatiedetails&User=&Script=ProjectAdministration.adl&Relatiedetails=(.ProjectAdministration.adl)personEmail[Person*Email]">
</a>
</g>
</g>
<!-- relName_3 -->
<g id="node13" class="node"><title>relName_3</title>
<g id="a_node13"><a xlink:href="Atlas.php?content=Relatiedetails&User=&Script=ProjectAdministration.adl&Relatiedetails=(.ProjectAdministration.adl)pl[Project*Person]">
</a>
</g>
</g>
<!-- relName_4 -->
<g id="node14" class="node"><title>relName_4</title>
<g id="a_node14"><a xlink:href="Atlas.php?content=Relatiedetails&User=&Script=ProjectAdministration.adl&Relatiedetails=(.ProjectAdministration.adl)member[Project*Person]">
</a>
</g>
</g>
<!-- relName_5 -->
<g id="node15" class="node"><title>relName_5</title>
<g id="a_node15"><a xlink:href="Atlas.php?content=Relatiedetails&User=&Script=ProjectAdministration.adl&Relatiedetails=(.ProjectAdministration.adl)workswith[Person]">
</a>
</g>
</g>
<!-- relName_6 -->
<g id="node16" class="node"><title>relName_6</title>
<g id="a_node16"><a xlink:href="Atlas.php?content=Relatiedetails&User=&Script=ProjectAdministration.adl&Relatiedetails=(.ProjectAdministration.adl)project[Assignment*Project]">
</a>
</g>
</g>
<!-- relName_7 -->
<g id="node17" class="node"><title>relName_7</title>
<g id="a_node17"><a xlink:href="Atlas.php?content=Relatiedetails&User=&Script=ProjectAdministration.adl&Relatiedetails=(.ProjectAdministration.adl)assignee[Assignment*Person]">
</a>
</g>
</g>
<!-- relName_8 -->
<g id="node18" class="node"><title>relName_8</title>
<g id="a_node18"><a xlink:href="Atlas.php?content=Relatiedetails&User=&Script=ProjectAdministration.adl&Relatiedetails=(.ProjectAdministration.adl)projectStatus[Project*ProjectStatus]">
</a>
</g>
</g>
<!-- relName_9 -->
<g id="node19" class="node"><title>relName_9</title>
<g id="a_node19"><a xlink:href="Atlas.php?content=Relatiedetails&User=&Script=ProjectAdministration.adl&Relatiedetails=(.ProjectAdministration.adl)projectDescription[Project*Description]">
</a>
</g>
</g>
<!-- relName_10 -->
<g id="node20" class="node"><title>relName_10</title>
<g id="a_node20"><a xlink:href="Atlas.php?content=Relatiedetails&User=&Script=ProjectAdministration.adl&Relatiedetails=(.ProjectAdministration.adl)projectStartDate[Project*Date]">
</a>
</g>
</g>
<!-- relName_11 -->
<g id="node21" class="node"><title>relName_11</title>
<g id="a_node21"><a xlink:href="Atlas.php?content=Relatiedetails&User=&Script=ProjectAdministration.adl&Relatiedetails=(.ProjectAdministration.adl)pplStartDate[Assignment*Date]">
</a>
</g>
</g>
<!-- relName_12 -->
<g id="node22" class="node"><title>relName_12</title>
<g id="a_node22"><a xlink:href="Atlas.php?content=Relatiedetails&User=&Script=ProjectAdministration.adl&Relatiedetails=(.ProjectAdministration.adl)personName[Person*PersonName]">
</a>
</g>
</g>
<!-- relName_13 -->
<g id="node23" class="node"><title>relName_13</title>
<g id="a_node23"><a xlink:href="Atlas.php?content=Relatiedetails&User=&Script=ProjectAdministration.adl&Relatiedetails=(.ProjectAdministration.adl)personStatus[Person*PersonStatus]">
</a>
</g>
</g>
</g>
</svg>
