<?xml version="1.0" encoding="UTF-8" standalone="no"?>
<!DOCTYPE svg PUBLIC "-//W3C//DTD SVG 1.1//EN"
 "http://www.w3.org/Graphics/SVG/1.1/DTD/svg11.dtd">
<!-- Generated by graphviz version 2.38.0 (20140413.2041)
 -->
<!-- Title: %3 Pages: 1 -->
<svg width="291pt" height="44pt"
 viewBox="0.00 0.00 290.98 44.00" xmlns="http://www.w3.org/2000/svg" xmlns:xlink="http://www.w3.org/1999/xlink">
<g id="graph0" class="graph" transform="scale(1 1) rotate(0) translate(4 40)">
<title>%3</title>
<polygon fill="white" stroke="none" points="-4,4 -4,-40 286.977,-40 286.977,4 -4,4"/>
<!-- cpt_1&#45;&gt;relName_1 -->
<g id="edge1" class="edge"><title>cpt_1&#45;&gt;relName_1</title>
<path fill="none" stroke="#595959" d="M54.1123,-18C86.5922,-18 136.682,-18 136.682,-18"/>
</g>
<!-- relName_1&#45;&gt;cpt_2 -->
<g id="edge2" class="edge"><title>relName_1&#45;&gt;cpt_2</title>
<path fill="none" stroke="#595959" d="M136.682,-18C136.682,-18 171.181,-18 201.677,-18"/>
<polygon fill="#595959" stroke="#595959" points="201.811,-21.4999 211.811,-18 201.811,-14.4999 201.811,-21.4999"/>
<text text-anchor="middle" x="186.179" y="-8.4" font-family="sans" font-size="12.00">projectName</text>
</g>
<!-- cpt_1 -->
<g id="node1" class="node"><title>cpt_1</title>
<g id="a_node1"><a xlink:href="Atlas.php?content=Concept&User=&Script=ProjectAdministration.adl&Concept=(.ProjectAdministration.adl)Project" xlink:title="Project">
<polygon fill="lightgrey" stroke="black" points="54,-36 0,-36 0,-3.86144e-007 54,-3.86144e-007 54,-36"/>
<text text-anchor="middle" x="27" y="-15.5" font-family="sans" font-size="10.00">Project</text>
</a>
</g>
</g>
<!-- cpt_2 -->
<g id="node2" class="node"><title>cpt_2</title>
<g id="a_node2"><a xlink:href="Atlas.php?content=Concept&User=&Script=ProjectAdministration.adl&Concept=(.ProjectAdministration.adl)ProjectName" xlink:title="ProjectName">
<polygon fill="lightgrey" stroke="black" points="282.977,-36 211.977,-36 211.977,-3.84846e-007 282.977,-3.84846e-007 282.977,-36"/>
<text text-anchor="middle" x="247.477" y="-15.5" font-family="sans" font-size="10.00">ProjectName</text>
</a>
</g>
</g>
<!-- relName_1 -->
<g id="node3" class="node"><title>relName_1</title>
<g id="a_node3"><a xlink:href="Atlas.php?content=Relatiedetails&User=&Script=ProjectAdministration.adl&Relatiedetails=(.ProjectAdministration.adl)projectName[Project*ProjectName]">
</a>
</g>
</g>
</g>
</svg>
