<?xml version="1.0" encoding="UTF-8" standalone="no"?>
<!DOCTYPE svg PUBLIC "-//W3C//DTD SVG 1.1//EN"
 "http://www.w3.org/Graphics/SVG/1.1/DTD/svg11.dtd">
<!-- Generated by graphviz version 2.38.0 (20140413.2041)
 -->
<!-- Title: %3 Pages: 1 -->
<svg width="227pt" height="208pt"
 viewBox="0.00 0.00 226.65 207.98" xmlns="http://www.w3.org/2000/svg" xmlns:xlink="http://www.w3.org/1999/xlink">
<g id="graph0" class="graph" transform="scale(1 1) rotate(0) translate(4 203.979)">
<title>%3</title>
<polygon fill="white" stroke="none" points="-4,4 -4,-203.979 222.65,-203.979 222.65,4 -4,4"/>
<!-- cpt_1&#45;&gt;relName_1 -->
<g id="edge1" class="edge"><title>cpt_1&#45;&gt;relName_1</title>
<path fill="none" stroke="#595959" d="M41.3188,-91.7134C56.9949,-71.8439 81.4368,-40.8637 92.9977,-26.2102"/>
<polygon fill="#595959" stroke="#595959" points="99.4752,-18 96.8141,-28.6381 96.3782,-21.9254 93.2812,-25.8508 93.2812,-25.8508 93.2812,-25.8508 96.3782,-21.9254 89.7483,-23.0636 99.4752,-18 99.4752,-18"/>
</g>
<!-- cpt_1&#45;&gt;relName_2 -->
<g id="edge3" class="edge"><title>cpt_1&#45;&gt;relName_2</title>
<path fill="none" stroke="#595959" d="M50.2589,-128.061C70.0978,-143.583 97.4869,-165.013 110.982,-175.571"/>
<polygon fill="#595959" stroke="#595959" points="119.172,-181.979 108.523,-179.361 115.234,-178.898 111.296,-175.817 111.296,-175.817 111.296,-175.817 115.234,-178.898 114.069,-172.273 119.172,-181.979 119.172,-181.979"/>
</g>
<!-- relName_1&#45;&gt;cpt_2 -->
<g id="edge2" class="edge"><title>relName_1&#45;&gt;cpt_2</title>
<path fill="none" stroke="#595959" d="M99.4752,-18C99.4752,-18 141.084,-50.613 168.39,-72.0153"/>
<text text-anchor="middle" x="128.933" y="-48.4076" font-family="sans" font-size="12.00">pl</text>
</g>
<!-- relName_2&#45;&gt;cpt_2 -->
<g id="edge4" class="edge"><title>relName_2&#45;&gt;cpt_2</title>
<path fill="none" stroke="#595959" d="M119.172,-181.979C119.172,-181.979 156.208,-135.103 177.331,-108.37"/>
<text text-anchor="middle" x="125.751" y="-148.574" font-family="sans" font-size="12.00">member</text>
</g>
<!-- cpt_1 -->
<g id="node1" class="node"><title>cpt_1</title>
<g id="a_node1"><a xlink:href="Atlas.php?content=Concept&User=&Script=ProjectAdministration.adl&Concept=(.ProjectAdministration.adl)Project" xlink:title="Project">
<polygon fill="lightgrey" stroke="black" points="54,-127.862 0,-127.862 0,-91.8624 54,-91.8624 54,-127.862"/>
<text text-anchor="middle" x="27" y="-107.362" font-family="sans" font-size="10.00">Project</text>
</a>
</g>
</g>
<!-- cpt_2 -->
<g id="node2" class="node"><title>cpt_2</title>
<g id="a_node2"><a xlink:href="Atlas.php?content=Concept&User=&Script=ProjectAdministration.adl&Concept=(.ProjectAdministration.adl)Person" xlink:title="Person">
<polygon fill="lightgrey" stroke="black" points="218.65,-108.246 164.65,-108.246 164.65,-72.246 218.65,-72.246 218.65,-108.246"/>
<text text-anchor="middle" x="191.65" y="-87.746" font-family="sans" font-size="10.00">Person</text>
</a>
</g>
</g>
<!-- relName_1 -->
<g id="node3" class="node"><title>relName_1</title>
<g id="a_node3"><a xlink:href="Atlas.php?content=Relatiedetails&User=&Script=ProjectAdministration.adl&Relatiedetails=(.ProjectAdministration.adl)pl[Project*Person]">
</a>
</g>
</g>
<!-- relName_2 -->
<g id="node4" class="node"><title>relName_2</title>
<g id="a_node4"><a xlink:href="Atlas.php?content=Relatiedetails&User=&Script=ProjectAdministration.adl&Relatiedetails=(.ProjectAdministration.adl)member[Project*Person]">
</a>
</g>
</g>
</g>
</svg>
