<?xml version="1.0" encoding="UTF-8" standalone="no"?>
<!DOCTYPE svg PUBLIC "-//W3C//DTD SVG 1.1//EN"
 "http://www.w3.org/Graphics/SVG/1.1/DTD/svg11.dtd">
<!-- Generated by graphviz version 2.38.0 (20140413.2041)
 -->
<!-- Title: %3 Pages: 1 -->
<svg width="282pt" height="44pt"
 viewBox="0.00 0.00 282.48 44.00" xmlns="http://www.w3.org/2000/svg" xmlns:xlink="http://www.w3.org/1999/xlink">
<g id="graph0" class="graph" transform="scale(1 1) rotate(0) translate(4 40)">
<title>%3</title>
<polygon fill="white" stroke="none" points="-4,4 -4,-40 278.477,-40 278.477,4 -4,4"/>
<!-- cpt_1&#45;&gt;relName_1 -->
<g id="edge1" class="edge"><title>cpt_1&#45;&gt;relName_1</title>
<path fill="none" stroke="#595959" d="M54.1123,-18C86.5922,-18 136.682,-18 136.682,-18"/>
</g>
<!-- relName_1&#45;&gt;cpt_2 -->
<g id="edge2" class="edge"><title>relName_1&#45;&gt;cpt_2</title>
<path fill="none" stroke="#595959" d="M136.682,-18C136.682,-18 178.118,-18 210.31,-18"/>
<polygon fill="#595959" stroke="#595959" points="210.373,-21.4999 220.373,-18 210.373,-14.4999 210.373,-21.4999"/>
<text text-anchor="middle" x="189.996" y="-8.4" font-family="sans" font-size="12.00">personEmail</text>
</g>
<!-- cpt_1 -->
<g id="node1" class="node"><title>cpt_1</title>
<g id="a_node1"><a xlink:href="Atlas.php?content=Concept&User=&Script=ProjectAdministration.adl&Concept=(.ProjectAdministration.adl)Person" xlink:title="Person">
<polygon fill="lightgrey" stroke="black" points="54,-36 0,-36 0,-3.86144e-007 54,-3.86144e-007 54,-36"/>
<text text-anchor="middle" x="27" y="-15.5" font-family="sans" font-size="10.00">Person</text>
</a>
</g>
</g>
<!-- cpt_2 -->
<g id="node2" class="node"><title>cpt_2</title>
<g id="a_node2"><a xlink:href="Atlas.php?content=Concept&User=&Script=ProjectAdministration.adl&Concept=(.ProjectAdministration.adl)Email" xlink:title="Email">
<polygon fill="lightgrey" stroke="black" points="274.477,-36 220.477,-36 220.477,-3.84846e-007 274.477,-3.84846e-007 274.477,-36"/>
<text text-anchor="middle" x="247.477" y="-15.5" font-family="sans" font-size="10.00">Email</text>
</a>
</g>
</g>
<!-- relName_1 -->
<g id="node3" class="node"><title>relName_1</title>
<g id="a_node3"><a xlink:href="Atlas.php?content=Relatiedetails&User=&Script=ProjectAdministration.adl&Relatiedetails=(.ProjectAdministration.adl)personEmail[Person*Email]">
</a>
</g>
</g>
</g>
</svg>
