<?xml version="1.0" encoding="UTF-8" standalone="no"?>
<!DOCTYPE svg PUBLIC "-//W3C//DTD SVG 1.1//EN"
 "http://www.w3.org/Graphics/SVG/1.1/DTD/svg11.dtd">
<!-- Generated by graphviz version 2.38.0 (20140413.2041)
 -->
<!-- Title: %3 Pages: 1 -->
<svg width="663pt" height="410pt"
 viewBox="0.00 0.00 663.00 409.50" xmlns="http://www.w3.org/2000/svg" xmlns:xlink="http://www.w3.org/1999/xlink">
<g id="graph0" class="graph" transform="scale(1 1) rotate(0) translate(4 405.5)">
<title>%3</title>
<polygon fill="white" stroke="none" points="-4,4 -4,-405.5 659,-405.5 659,4 -4,4"/>
<!-- Project -->
<g id="node1" class="node"><title>Project</title>
<polygon fill="white" stroke="none" points="434,-163 434,-310 647,-310 647,-163 434,-163"/>
<polygon fill="#1a1a1a" stroke="none" points="434.5,-288.5 434.5,-309.5 647.5,-309.5 647.5,-288.5 434.5,-288.5"/>
<polygon fill="none" stroke="black" points="434.5,-288.5 434.5,-309.5 647.5,-309.5 647.5,-288.5 434.5,-288.5"/>
<text text-anchor="start" x="521.5" y="-295.3" font-family="Times,serif" font-size="14.00" fill="white">Project</text>
<polygon fill="none" stroke="black" points="434.5,-267.5 434.5,-288.5 647.5,-288.5 647.5,-267.5 434.5,-267.5"/>
<text text-anchor="start" x="437.5" y="-274.3" font-family="Times,serif" font-size="14.00">+ Project : Project</text>
<polygon fill="none" stroke="black" points="434.5,-246.5 434.5,-267.5 647.5,-267.5 647.5,-246.5 434.5,-246.5"/>
<text text-anchor="start" x="437.5" y="-253.3" font-family="Times,serif" font-size="14.00">o tgt_projectName : ProjectName</text>
<polygon fill="none" stroke="black" points="434.5,-225.5 434.5,-246.5 647.5,-246.5 647.5,-225.5 434.5,-225.5"/>
<text text-anchor="start" x="437.5" y="-232.3" font-family="Times,serif" font-size="14.00">o tgt_projectStatus : ProjectStatus</text>
<polygon fill="none" stroke="black" points="434.5,-204.5 434.5,-225.5 647.5,-225.5 647.5,-204.5 434.5,-204.5"/>
<text text-anchor="start" x="437.5" y="-211.3" font-family="Times,serif" font-size="14.00">o tgt_projectDescription : Description</text>
<polygon fill="none" stroke="black" points="434.5,-183.5 434.5,-204.5 647.5,-204.5 647.5,-183.5 434.5,-183.5"/>
<text text-anchor="start" x="437.5" y="-190.3" font-family="Times,serif" font-size="14.00">o tgt_projectStartDate : Date</text>
<polygon fill="none" stroke="black" points="434.5,-162.5 434.5,-183.5 647.5,-183.5 647.5,-162.5 434.5,-162.5"/>
<text text-anchor="start" x="437.5" y="-169.3" font-family="Times,serif" font-size="14.00">o tgt_projectStarted : Bool</text>
</g>
<!-- Project&#45;&gt;Project -->
<g id="edge1" class="edge"><title>Project:tgt_projectStarted&#45;&gt;Project</title>
<path fill="none" stroke="black" d="M434.462,-169.149C393.742,-172.66 360,-182.879 360,-204.5 360,-223.734 386.482,-233.945 420.811,-238.436"/>
<polyline fill="none" stroke="black" points="425.93,-239.058 420.967,-238.455 "/>
<text text-anchor="middle" x="328.5" y="-233.7" font-family="Times,serif" font-size="11.00">projectStarted</text>
<text text-anchor="middle" x="418.43" y="-230.258" font-family="Times,serif" font-size="11.00">0&#45;1</text>
<text text-anchor="middle" x="426.962" y="-160.349" font-family="Times,serif" font-size="11.00">0&#45;1</text>
</g>
<!-- Assignment -->
<g id="node2" class="node"><title>Assignment</title>
<polygon fill="white" stroke="none" points="107,-271.5 107,-397.5 267,-397.5 267,-271.5 107,-271.5"/>
<polygon fill="#1a1a1a" stroke="none" points="107,-376.5 107,-397.5 267,-397.5 267,-376.5 107,-376.5"/>
<polygon fill="none" stroke="black" points="107,-376.5 107,-397.5 267,-397.5 267,-376.5 107,-376.5"/>
<text text-anchor="start" x="154" y="-383.3" font-family="Times,serif" font-size="14.00" fill="white">Assignment</text>
<polygon fill="none" stroke="black" points="107,-355.5 107,-376.5 267,-376.5 267,-355.5 107,-355.5"/>
<text text-anchor="start" x="110" y="-362.3" font-family="Times,serif" font-size="14.00">+ Assignment : Assignment</text>
<polygon fill="none" stroke="black" points="107,-334.5 107,-355.5 267,-355.5 267,-334.5 107,-334.5"/>
<text text-anchor="start" x="110" y="-341.3" font-family="Times,serif" font-size="14.00">o tgt_project : Project</text>
<polygon fill="none" stroke="black" points="107,-313.5 107,-334.5 267,-334.5 267,-313.5 107,-313.5"/>
<text text-anchor="start" x="110" y="-320.3" font-family="Times,serif" font-size="14.00">o tgt_assignee : Person</text>
<polygon fill="none" stroke="black" points="107,-292.5 107,-313.5 267,-313.5 267,-292.5 107,-292.5"/>
<text text-anchor="start" x="110" y="-299.3" font-family="Times,serif" font-size="14.00">o tgt_pplStartDate : Date</text>
<polygon fill="none" stroke="black" points="107,-271.5 107,-292.5 267,-292.5 267,-271.5 107,-271.5"/>
<text text-anchor="start" x="110" y="-278.3" font-family="Times,serif" font-size="14.00">o tgt_pplStarted : Bool</text>
</g>
<!-- Assignment&#45;&gt;Project -->
<g id="edge2" class="edge"><title>Assignment:tgt_project&#45;&gt;Project</title>
<path fill="none" stroke="black" d="M268,-345.5C287.876,-345.5 292.124,-337.5 312,-337.5 312,-337.5 312,-337.5 389,-337.5 412.502,-337.5 435.101,-328.903 455.323,-316.726"/>
<polyline fill="none" stroke="black" points="459.601,-314.075 455.351,-316.708 "/>
<text text-anchor="middle" x="350.5" y="-340.7" font-family="Times,serif" font-size="11.00">project</text>
<text text-anchor="middle" x="456.601" y="-317.275" font-family="Times,serif" font-size="11.00">1</text>
<text text-anchor="middle" x="265" y="-336.7" font-family="Times,serif" font-size="11.00">*</text>
</g>
<!-- Assignment&#45;&gt;Assignment -->
<g id="edge4" class="edge"><title>Assignment:tgt_pplStarted&#45;&gt;Assignment</title>
<path fill="none" stroke="black" d="M106.922,-277.302C73.9123,-279.852 46,-288.655 46,-308 46,-324.71 66.8268,-333.554 93.7755,-337.297"/>
<polyline fill="none" stroke="black" points="98.875,-337.938 93.9139,-337.315 "/>
<text text-anchor="middle" x="23" y="-331.7" font-family="Times,serif" font-size="11.00">pplStarted</text>
<text text-anchor="middle" x="91.375" y="-329.137" font-family="Times,serif" font-size="11.00">0&#45;1</text>
<text text-anchor="middle" x="99.422" y="-268.502" font-family="Times,serif" font-size="11.00">0&#45;1</text>
</g>
<!-- Person -->
<g id="node3" class="node"><title>Person</title>
<polygon fill="white" stroke="none" points="446.5,-32 446.5,-137 634.5,-137 634.5,-32 446.5,-32"/>
<polygon fill="#1a1a1a" stroke="none" points="446.5,-115.5 446.5,-136.5 634.5,-136.5 634.5,-115.5 446.5,-115.5"/>
<polygon fill="none" stroke="black" points="446.5,-115.5 446.5,-136.5 634.5,-136.5 634.5,-115.5 446.5,-115.5"/>
<text text-anchor="start" x="522" y="-122.3" font-family="Times,serif" font-size="14.00" fill="white">Person</text>
<polygon fill="none" stroke="black" points="446.5,-94.5 446.5,-115.5 634.5,-115.5 634.5,-94.5 446.5,-94.5"/>
<text text-anchor="start" x="449.5" y="-101.3" font-family="Times,serif" font-size="14.00">+ Person : Person</text>
<polygon fill="none" stroke="black" points="446.5,-73.5 446.5,-94.5 634.5,-94.5 634.5,-73.5 446.5,-73.5"/>
<text text-anchor="start" x="449.5" y="-80.3" font-family="Times,serif" font-size="14.00">o tgt_personName : PersonName</text>
<polygon fill="none" stroke="black" points="446.5,-52.5 446.5,-73.5 634.5,-73.5 634.5,-52.5 446.5,-52.5"/>
<text text-anchor="start" x="449.5" y="-59.3" font-family="Times,serif" font-size="14.00">o tgt_personStatus : PersonStatus</text>
<polygon fill="none" stroke="black" points="446.5,-31.5 446.5,-52.5 634.5,-52.5 634.5,-31.5 446.5,-31.5"/>
<text text-anchor="start" x="449.5" y="-38.3" font-family="Times,serif" font-size="14.00">o tgt_personEmail : Email</text>
</g>
<!-- Assignment&#45;&gt;Person -->
<g id="edge3" class="edge"><title>Assignment:tgt_assignee&#45;&gt;Person</title>
<path fill="none" stroke="black" d="M268,-323.5C296.94,-323.5 283.06,-275.5 312,-275.5 312,-275.5 312,-275.5 389,-275.5 447.365,-275.5 389.841,-195.314 426,-149.5 428.68,-146.105 431.589,-142.855 434.678,-139.748"/>
<polyline fill="none" stroke="black" points="438.385,-136.166 434.79,-139.641 "/>
<text text-anchor="middle" x="350.5" y="-278.7" font-family="Times,serif" font-size="11.00">assignee</text>
<text text-anchor="middle" x="435.385" y="-139.366" font-family="Times,serif" font-size="11.00">1</text>
<text text-anchor="middle" x="265" y="-314.7" font-family="Times,serif" font-size="11.00">*</text>
</g>
<!-- pl -->
<g id="node4" class="node"><title>pl</title>
<polygon fill="white" stroke="none" points="134,-182 134,-245 240,-245 240,-182 134,-182"/>
<polygon fill="#1a1a1a" stroke="none" points="134,-223.5 134,-244.5 240,-244.5 240,-223.5 134,-223.5"/>
<polygon fill="none" stroke="black" points="134,-223.5 134,-244.5 240,-244.5 240,-223.5 134,-223.5"/>
<text text-anchor="start" x="181.5" y="-230.3" font-family="Times,serif" font-size="14.00" fill="white">pl</text>
<polygon fill="none" stroke="black" points="134,-202.5 134,-223.5 240,-223.5 240,-202.5 134,-202.5"/>
<text text-anchor="start" x="137" y="-209.3" font-family="Times,serif" font-size="14.00">+ Project : Project</text>
<polygon fill="none" stroke="black" points="134,-181.5 134,-202.5 240,-202.5 240,-181.5 134,-181.5"/>
<text text-anchor="start" x="137" y="-188.3" font-family="Times,serif" font-size="14.00">+ Person : Person</text>
</g>
<!-- pl&#45;&gt;Project -->
<g id="edge5" class="edge"><title>pl:Project&#45;&gt;Project</title>
<path fill="none" stroke="black" d="M241,-212.5C272.634,-212.5 280.366,-217.5 312,-217.5 312,-217.5 312,-217.5 389,-217.5 399.298,-217.5 409.961,-217.943 420.637,-218.694"/>
<polyline fill="none" stroke="black" points="425.878,-219.087 420.892,-218.713 "/>
<text text-anchor="middle" x="422.878" y="-210.287" font-family="Times,serif" font-size="11.00">1</text>
<text text-anchor="middle" x="238" y="-203.7" font-family="Times,serif" font-size="11.00">*</text>
</g>
<!-- pl&#45;&gt;Person -->
<g id="edge6" class="edge"><title>pl:Person&#45;&gt;Person</title>
<path fill="none" stroke="black" d="M241,-191.5C259.244,-191.5 260.52,-179.598 275,-168.5 292.256,-155.275 290.259,-136.5 312,-136.5 312,-136.5 312,-136.5 389,-136.5 403.654,-136.5 418.691,-134.271 433.326,-130.735"/>
<polyline fill="none" stroke="black" points="438.272,-129.487 433.424,-130.71 "/>
<text text-anchor="middle" x="435.272" y="-120.687" font-family="Times,serif" font-size="11.00">1</text>
<text text-anchor="middle" x="238" y="-182.7" font-family="Times,serif" font-size="11.00">*</text>
</g>
<!-- member -->
<g id="node5" class="node"><title>member</title>
<polygon fill="white" stroke="none" points="134,-93 134,-156 240,-156 240,-93 134,-93"/>
<polygon fill="#1a1a1a" stroke="none" points="134,-134.5 134,-155.5 240,-155.5 240,-134.5 134,-134.5"/>
<polygon fill="none" stroke="black" points="134,-134.5 134,-155.5 240,-155.5 240,-134.5 134,-134.5"/>
<text text-anchor="start" x="164" y="-141.3" font-family="Times,serif" font-size="14.00" fill="white">member</text>
<polygon fill="none" stroke="black" points="134,-113.5 134,-134.5 240,-134.5 240,-113.5 134,-113.5"/>
<text text-anchor="start" x="137" y="-120.3" font-family="Times,serif" font-size="14.00">+ Project : Project</text>
<polygon fill="none" stroke="black" points="134,-92.5 134,-113.5 240,-113.5 240,-92.5 134,-92.5"/>
<text text-anchor="start" x="137" y="-99.3" font-family="Times,serif" font-size="14.00">+ Person : Person</text>
</g>
<!-- member&#45;&gt;Project -->
<g id="edge7" class="edge"><title>member:Project&#45;&gt;Project</title>
<path fill="none" stroke="black" d="M241,-123.5C280.916,-123.5 272.084,-178.5 312,-178.5 312,-178.5 312,-178.5 389,-178.5 399.468,-178.5 410.088,-179.737 420.592,-181.849"/>
<polyline fill="none" stroke="black" points="425.738,-182.955 420.85,-181.904 "/>
<text text-anchor="middle" x="422.738" y="-174.155" font-family="Times,serif" font-size="11.00">1</text>
<text text-anchor="middle" x="238" y="-114.7" font-family="Times,serif" font-size="11.00">*</text>
</g>
<!-- member&#45;&gt;Person -->
<g id="edge8" class="edge"><title>member:Person&#45;&gt;Person</title>
<path fill="none" stroke="black" d="M241,-102.5C272.634,-102.5 280.366,-97.5 312,-97.5 312,-97.5 312,-97.5 389,-97.5 403.373,-97.5 418.489,-96.9042 433.372,-95.9677"/>
<polyline fill="none" stroke="black" points="438.409,-95.6374 433.42,-95.9647 "/>
<text text-anchor="middle" x="435.409" y="-86.8374" font-family="Times,serif" font-size="11.00">1</text>
<text text-anchor="middle" x="238" y="-93.7" font-family="Times,serif" font-size="11.00">*</text>
</g>
<!-- workswith -->
<g id="node6" class="node"><title>workswith</title>
<polygon fill="white" stroke="none" points="126,-4 126,-67 248,-67 248,-4 126,-4"/>
<polygon fill="#1a1a1a" stroke="none" points="126,-45.5 126,-66.5 248,-66.5 248,-45.5 126,-45.5"/>
<polygon fill="none" stroke="black" points="126,-45.5 126,-66.5 248,-66.5 248,-45.5 126,-45.5"/>
<text text-anchor="start" x="158" y="-52.3" font-family="Times,serif" font-size="14.00" fill="white">workswith</text>
<polygon fill="none" stroke="black" points="126,-24.5 126,-45.5 248,-45.5 248,-24.5 126,-24.5"/>
<text text-anchor="start" x="129" y="-31.3" font-family="Times,serif" font-size="14.00">+ SrcPerson : Person</text>
<polygon fill="none" stroke="black" points="126,-3.5 126,-24.5 248,-24.5 248,-3.5 126,-3.5"/>
<text text-anchor="start" x="129" y="-10.3" font-family="Times,serif" font-size="14.00">+ TgtPerson : Person</text>
</g>
<!-- workswith&#45;&gt;Person -->
<g id="edge9" class="edge"><title>workswith:SrcPerson&#45;&gt;Person</title>
<path fill="none" stroke="black" d="M249,-34.5C278.808,-34.5 282.192,-57.5 312,-57.5 312,-57.5 312,-57.5 389,-57.5 403.429,-57.5 418.516,-58.7172 433.33,-60.6348"/>
<polyline fill="none" stroke="black" points="438.342,-61.3112 433.387,-60.6424 "/>
<text text-anchor="middle" x="435.342" y="-52.5112" font-family="Times,serif" font-size="11.00">1</text>
<text text-anchor="middle" x="246" y="-25.7" font-family="Times,serif" font-size="11.00">*</text>
</g>
<!-- workswith&#45;&gt;Person -->
<g id="edge10" class="edge"><title>workswith:TgtPerson&#45;&gt;Person</title>
<path fill="none" stroke="black" d="M249,-13.5C277.032,-13.5 283.968,-16.5 312,-16.5 312,-16.5 312,-16.5 389,-16.5 406.428,-16.5 424.065,-20.3338 440.829,-26.1807"/>
<polyline fill="none" stroke="black" points="445.533,-27.8817 440.831,-26.1814 "/>
<text text-anchor="middle" x="442.533" y="-19.0817" font-family="Times,serif" font-size="11.00">1</text>
<text text-anchor="middle" x="246" y="-4.7" font-family="Times,serif" font-size="11.00">*</text>
</g>
</g>
</svg>
